<svg width="9" height="19" viewBox="0 0 9 19" fill="none" xmlns="http://www.w3.org/2000/svg">
<path d="M0.85965 0.872639C0.955744 0.872084 1.051 0.890501 1.13996 0.926837C1.22892 0.963174 1.30984 1.01671 1.37806 1.08439L7.34346 7.04977C7.68344 7.3889 7.95319 7.79177 8.13723 8.23531C8.32128 8.67884 8.41602 9.15433 8.41602 9.63453C8.41602 10.1147 8.32128 10.5902 8.13723 11.0338C7.95319 11.4773 7.68344 11.8802 7.34346 12.2193L1.37806 18.1847C1.30998 18.2528 1.22916 18.3068 1.14021 18.3436C1.05126 18.3805 0.955927 18.3994 0.859649 18.3994C0.763371 18.3994 0.668036 18.3805 0.579086 18.3436C0.490137 18.3068 0.409316 18.2528 0.341237 18.1847C0.273158 18.1166 0.219154 18.0358 0.18231 17.9468C0.145466 17.8579 0.126503 17.7625 0.126503 17.6663C0.126503 17.57 0.145466 17.4747 0.18231 17.3857C0.219154 17.2968 0.273158 17.2159 0.341237 17.1479L6.30663 11.1825C6.71684 10.7718 6.94725 10.215 6.94725 9.63453C6.94725 9.05406 6.71684 8.49731 6.30663 8.0866L0.341238 2.12121C0.272801 2.05333 0.218481 1.97258 0.181411 1.8836C0.144342 1.79462 0.125258 1.69919 0.125258 1.6028C0.125258 1.50641 0.144342 1.41097 0.181411 1.322C0.218481 1.23302 0.272802 1.15226 0.341238 1.08439C0.409464 1.01671 0.490376 0.963173 0.579337 0.926837C0.668298 0.890501 0.763556 0.872084 0.85965 0.872639Z" fill="#014CFF"/>
</svg>
